<?xml version="1.0" encoding="UTF-8"?>
<svg version="1.1" xmlns="http://www.w3.org/2000/svg" width="187" height="187">
<path d="M0 0 C1.05058594 0.350625 2.10117188 0.70125 3.18359375 1.0625 C23.71089834 8.75022916 38.87113067 25.14895088 48.25 44.5 C57.89464945 66.1554529 57.1290317 89.44180709 48.75 111.3125 C38.54176673 134.06316621 20.12116348 148.21558138 -2.40625 157.38671875 C-21.81473536 163.73008839 -45.43860651 161.85356832 -63.64038086 152.90576172 C-71.08171694 149.05704709 -77.79760531 144.66652603 -84 139 C-84.680625 138.41089844 -85.36125 137.82179687 -86.0625 137.21484375 C-95.59158874 128.44882657 -104.18720798 114.71616392 -107 102 C-104.36685314 100.68342657 -102.44146661 100.9393512 -99.5 101 C-93.93084926 101.05380822 -88.52328374 100.68430064 -83 100 C-83.47050781 99.54109375 -83.94101563 99.0821875 -84.42578125 98.609375 C-85.04839844 97.99578125 -85.67101562 97.3821875 -86.3125 96.75 C-86.92738281 96.14671875 -87.54226562 95.5434375 -88.17578125 94.921875 C-90 93 -90 93 -91.1875 90.8125 C-94.14848126 87.85151874 -97.66536141 88.32383527 -101.6875 88.25 C-104.430625 88.1675 -107.17375 88.085 -110 88 C-110 82.39 -110 76.78 -110 71 C-107.56625 71.061875 -105.1325 71.12375 -102.625 71.1875 C-96.99117748 71.07957676 -93.40028895 70.23482531 -89.39990234 66.14355469 C-87.5064486 63.83601113 -85.76878322 61.40443969 -84 59 C-91.92 58.67 -99.84 58.34 -108 58 C-101.69813158 34.89314913 -88.79652161 17.79554667 -68 5.6875 C-47.30861866 -5.90068439 -22.40464661 -7.67870639 0 0 Z M-76 31 C-76.7321875 31.73347656 -77.464375 32.46695313 -78.21875 33.22265625 C-83.03529436 38.31776941 -86.2123095 43.58027044 -89 50 C-84.36515634 51.53515424 -79.72066337 52.62008934 -75 51 C-72.14097118 48.5171393 -69.8793541 45.56102196 -67.5 42.625 C-63.11976833 37.36534366 -59.4723604 33.73351002 -52.41049194 32.97888184 C-47.64034503 32.68799027 -42.92578013 32.75532111 -38.15625 33.02001953 C-31.89981552 33.7416329 -31.89981552 33.7416329 -26.29931641 31.71630859 C-25.0602447 29.91251627 -25.0602447 29.91251627 -24 27 C-20.52736727 25.26368364 -16.78806987 25.39809598 -13 26 C-10.24430553 28.18159145 -8.56411253 29.87177494 -7 33 C-6.87629885 37.57694247 -7.12161527 40.99613174 -10.1875 44.5 C-13.34418084 46.18356312 -15.41534813 46.92684384 -19 47 C-21.96936033 45.83554497 -24.24598977 44.90571292 -26.30810547 42.42871094 C-30.09546546 39.23049584 -36.40408814 40.30975838 -41.125 40.25 C-42.92324219 40.1571875 -42.92324219 40.1571875 -44.7578125 40.0625 C-49.92170752 39.99455401 -53.56256224 39.98895815 -57.87402344 43.02148438 C-60.12590922 45.24602646 -62.14125631 47.43955452 -64 50 C-64 50.33 -64 50.66 -64 51 C-59.38 51 -54.76 51 -50 51 C-50 51.66 -50 52.32 -50 53 C-48.31477271 54.70484466 -48.31477271 54.70484466 -46.1875 56.4375 C-42.10076945 59.88405054 -42.10076945 59.88405054 -40.62890625 61.57763672 C-38.60559198 63.34439765 -37.55131108 63.41514639 -34.89453125 63.51171875 C-34.08314697 63.54773193 -33.2717627 63.58374512 -32.43579102 63.62084961 C-31.57010498 63.64284424 -30.70441895 63.66483887 -29.8125 63.6875 C-28.48013306 63.73112671 -28.48013306 63.73112671 -27.12084961 63.77563477 C-25.29755174 63.83155815 -23.47404153 63.88093398 -21.65039062 63.92382812 C-19.19461568 63.99440677 -16.74918718 64.12062968 -14.296875 64.265625 C-12.88549087 64.32471651 -11.47403422 64.38210962 -10.0625 64.4375 C-8.19271484 64.52837891 -8.19271484 64.52837891 -6.28515625 64.62109375 C-1.63908363 63.74270428 -0.71673715 61.77621603 2 58 C5.06429776 56.46785112 7.6165642 56.77061452 11 57 C13.82275936 58.25455972 15.46288541 59.28384722 17.3125 61.75 C18.85326064 66.79248936 18.3304911 70.3390178 16 75 C23.92 75 31.84 75 40 75 C37.78575855 55.07182692 30.50857595 38.86498713 15.17578125 25.546875 C8.55058098 20.31599792 1.99592252 16.67931701 -6 14 C-6.90878906 13.68160156 -7.81757812 13.36320312 -8.75390625 13.03515625 C-32.90468468 5.7462565 -58.56701734 13.29835836 -76 31 Z M-76.1875 60.9375 C-77.16114059 62.26591922 -78.097574 63.62221158 -79 65 C-80.276648 66.45085455 -81.56840954 67.88855112 -82.875 69.3125 C-84.53002957 71.20131178 -85.87746465 72.7549293 -87 75 C-58.62 75 -30.24 75 -1 75 C-1.99 73.515 -1.99 73.515 -3 72 C-5.85455056 71.7140483 -8.51843291 71.61015577 -11.375 71.62109375 C-13.10030124 71.5873104 -14.8255625 71.55143353 -16.55078125 71.51367188 C-19.26557731 71.46848227 -21.97767977 71.43744536 -24.69287109 71.4440918 C-40.66553766 71.43969807 -40.66553766 71.43969807 -45.41015625 67.71533203 C-47.84170726 65.25885325 -49.92686335 62.75805519 -52 60 C-58.08139969 56.95930016 -71.10841659 55.75260235 -76.1875 60.9375 Z M-87 83 C-79.21838552 94.69808742 -79.21838552 94.69808742 -67.7109375 101.87890625 C-63.20987268 102.12206722 -59.62869237 102.07522523 -55.79296875 99.54296875 C-54.03730918 97.78730918 -52.53666802 95.94700444 -51 94 C-50.030625 93.236875 -49.06125 92.47375 -48.0625 91.6875 C-47.381875 91.130625 -46.70125 90.57375 -46 90 C-46 89.34 -46 88.68 -46 88 C-34.45 88 -22.9 88 -11 88 C-10.34 86.68 -9.68 85.36 -9 84 C-8.34 83.67 -7.68 83.34 -7 83 C-33.4 83 -59.8 83 -87 83 Z M7 83 C7.99 84.98 8.98 86.96 10 89 C10.38835354 93.42723037 10.40565224 97.17282598 8 101 C3.97467489 103.10850363 0.43511806 103.16344331 -3.97265625 102.875 C-6 102 -6 102 -7.8046875 99.00390625 C-9.79610327 96.47530485 -10.90201393 96.0210602 -14.11010742 95.33154297 C-18.11440653 95.00563294 -22.04803145 94.90132737 -26.0625 94.9375 C-26.76763733 94.93542542 -27.47277466 94.93335083 -28.19927979 94.93121338 C-38.8807674 94.86770285 -38.8807674 94.86770285 -48.0065918 99.84863281 C-49.33091327 101.32582422 -50.57758375 102.87150598 -51.8203125 104.41796875 C-54.25657562 107.30393635 -55.60171167 107.96116904 -59.25 108.6875 C-60.4875 108.790625 -61.725 108.89375 -63 109 C-62.06558465 110.27310312 -61.12732889 111.543388 -60.1875 112.8125 C-59.40439453 113.87404297 -59.40439453 113.87404297 -58.60546875 114.95703125 C-58.07566406 115.63121094 -57.54585937 116.30539063 -57 117 C-56.38596313 117.78987305 -56.38596313 117.78987305 -55.75952148 118.59570312 C-53.2632731 120.58799127 -51.41217922 120.43191648 -48.2421875 120.51171875 C-46.48442993 120.56561768 -46.48442993 120.56561768 -44.69116211 120.62060547 C-43.43182861 120.64268066 -42.17249512 120.66475586 -40.875 120.6875 C-38.94442749 120.73221436 -38.94442749 120.73221436 -36.97485352 120.77783203 C-34.30453164 120.83518079 -31.63488212 120.8863203 -28.96435547 120.92822266 C-25.1945849 120.99647691 -21.42852838 121.10900755 -17.66015625 121.23046875 C-15.41932038 121.2808979 -13.17843489 121.32918163 -10.9375 121.375 C-9.37008057 121.43240356 -9.37008057 121.43240356 -7.77099609 121.4909668 C-2.01202339 121.69745761 -2.01202339 121.69745761 2.56640625 118.55859375 C3.27603516 117.29208984 3.27603516 117.29208984 4 116 C7.26934278 113.71146006 10.0698152 113.52837782 14 114 C17.60703153 115.87288176 19.5449456 117.0898912 21.375 120.75 C21.684375 121.86375 21.684375 121.86375 22 123 C30.68465769 115.33706674 37.45117861 102.55502272 39 91 C39 88.36 39 85.72 39 83 C28.44 83 17.88 83 7 83 Z M-87 109 C-82.20270488 122.22818506 -71.06782373 132.09907779 -58.8125 138.4375 C-41.91472849 146.25686094 -23.09160098 147.71437753 -5.19921875 142.22265625 C-0.83957101 140.55651493 3.07830974 138.51009403 7 136 C5.36239758 133.13799173 3.64505826 130.98979393 1 129 C-3.24394183 128.07034701 -7.38738897 128.31013538 -11.7109375 128.4765625 C-14.26170687 128.48854824 -16.8124916 128.49756583 -19.36328125 128.50390625 C-23.3597352 128.55133755 -27.34757367 128.62411898 -31.34228516 128.75244141 C-54.86641054 129.41636985 -54.86641054 129.41636985 -62.38378906 123.14355469 C-66.44322667 119.12314756 -69.81111401 114.72614551 -73 110 C-74.11126659 108.66098208 -74.11126659 108.66098208 -76.94140625 108.90234375 C-78.13636719 108.91394531 -79.33132812 108.92554687 -80.5625 108.9375 C-81.76003906 108.94652344 -82.95757812 108.95554687 -84.19140625 108.96484375 C-85.58166016 108.98224609 -85.58166016 108.98224609 -87 109 Z " fill="#46BEA9" transform="translate(123,17)"/>
<path d="M0 0 C1.59350586 2.13037109 1.59350586 2.13037109 3.27734375 4.8984375 C7.49575132 9.85766846 10.80006202 10.72399363 17.22280884 11.26568604 C22.67123359 11.52183086 28.1087324 11.5989677 33.5625 11.625 C35.83407968 11.67132241 38.10557387 11.72205995 40.37695312 11.77734375 C45.91800374 11.90263436 51.45764548 11.97282948 57 12 C57 12.33 57 12.66 57 13 C49.79186984 13.10126342 42.58392248 13.17140779 35.37524414 13.21972656 C32.92204941 13.23986533 30.46890281 13.26717818 28.01586914 13.30175781 C24.49353167 13.35017482 20.97182777 13.37294629 17.44921875 13.390625 C15.79910042 13.42159271 15.79910042 13.42159271 14.11564636 13.45318604 C13.09481461 13.45348816 12.07398285 13.45379028 11.0222168 13.45410156 C9.67319527 13.46742523 9.67319527 13.46742523 8.29692078 13.48101807 C5.264664 12.84600692 4.66891207 11.50967083 3 9 C2.34 9 1.68 9 1 9 C2.66751148 12.94139078 5.22710649 15.7892812 8 19 C4.96132181 17.65396955 2.99614388 16.19575827 0.765625 13.7421875 C0.19199219 13.11699219 -0.38164063 12.49179688 -0.97265625 11.84765625 C-1.55917969 11.19667969 -2.14570312 10.54570312 -2.75 9.875 C-3.35199219 9.21628906 -3.95398437 8.55757812 -4.57421875 7.87890625 C-6.05480215 6.25731491 -7.52977125 4.63097546 -9 3 C-5.95184247 0.29052664 -4.08360678 -0.63783235 0 0 Z " fill="#4EB7A6" transform="translate(60,126)"/>
<path d="M0 0 C0.66 0.33 1.32 0.66 2 1 C0.68 2.65 -0.64 4.3 -2 6 C-1.34 6.33 -0.68 6.66 0 7 C-0.639375 7.28875 -1.27875 7.5775 -1.9375 7.875 C-4.15206079 8.82823451 -4.15206079 8.82823451 -5 11 C-5.66 11 -6.32 11 -7 11 C-7.1546875 11.928125 -7.1546875 11.928125 -7.3125 12.875 C-8 15 -8 15 -11 17 C-12.32 17 -13.64 17 -15 17 C-14.67 18.32 -14.34 19.64 -14 21 C-16.31 22.32 -18.62 23.64 -21 25 C-19.52859543 20.45048471 -16.95897709 17.18809216 -13.875 13.625 C-13.38797607 13.05499268 -12.90095215 12.48498535 -12.39916992 11.89770508 C-8.59951355 7.52364583 -4.55697231 3.5907375 0 0 Z " fill="#4ABFA9" transform="translate(45,29)"/>
<path d="M0 0 C2.475 0.495 2.475 0.495 5 1 C5 1.99 5 2.98 5 4 C6.65769409 3.98428955 6.65769409 3.98428955 8.34887695 3.96826172 C12.44698856 3.93207593 16.54508603 3.90910471 20.64331055 3.89013672 C22.41742324 3.88007589 24.19151935 3.86642578 25.96557617 3.84912109 C28.51485284 3.82487622 31.06391037 3.81351782 33.61328125 3.8046875 C34.40712723 3.79436493 35.20097321 3.78404236 36.01887512 3.77340698 C39.88223043 3.7726189 41.70839446 3.80559631 45 6 C44.67 6.66 44.34 7.32 44 8 C43.505 7.505 43.505 7.505 43 7 C40.16577643 6.82997327 37.34885959 6.71840315 34.51171875 6.640625 C32.75581614 6.57669764 30.99995742 6.51155501 29.24414062 6.4453125 C26.46600012 6.34415529 23.68844919 6.25002502 20.90942383 6.17675781 C18.23390852 6.10342341 15.56098905 5.99959496 12.88671875 5.890625 C12.05742355 5.87582092 11.22812836 5.86101685 10.373703 5.84576416 C4.57383156 5.57388638 4.57383156 5.57388638 1.44458008 2.44433594 C0.96786865 1.63770508 0.49115723 0.83107422 0 0 Z " fill="#57B5A6" transform="translate(77,83)"/>
<path d="M0 0 C5.56701031 2.88659794 5.56701031 2.88659794 6.875 6.25 C6.91625 6.8275 6.9575 7.405 7 8 C6.401875 7.360625 5.80375 6.72125 5.1875 6.0625 C1.88333187 2.94714147 -1.47176718 2.49575185 -5.96484375 2.50390625 C-8.64105529 3.15626492 -9.28811465 4.22671101 -10.875 6.4375 C-12.69266214 8.92297723 -13.52225913 9.86318566 -16.5234375 10.72265625 C-23.19702381 11.4014881 -23.19702381 11.4014881 -26 10 C-26 9.34 -26 8.68 -26 8 C-22.04 8 -18.08 8 -14 8 C-13.34 6.68 -12.68 5.36 -12 4 C-8.14170692 0.03146997 -5.48171431 -0.76936341 0 0 Z " fill="#56B5A4" transform="translate(134,73)"/>
<path d="M0 0 C0.33 0 0.66 0 1 0 C1 2.64 1 5.28 1 8 C7.6 8.66 14.2 9.32 21 10 C21 10.33 21 10.66 21 11 C13.08 11 5.16 11 -3 11 C-2.01 7.37 -1.02 3.74 0 0 Z " fill="#5AB4A3" transform="translate(18,64)"/>
<path d="M0 0 C0.33 0 0.66 0 1 0 C0.48711344 5.70121727 -1.09396777 9.98651793 -3.6875 15.0625 C-4.01427734 15.74376953 -4.34105469 16.42503906 -4.67773438 17.12695312 C-7.11876213 21.98567184 -9.90354248 25.40789429 -14 29 C-14.66 29 -15.32 29 -16 29 C-16.33 26.69 -16.66 24.38 -17 22 C-16.01 23.32 -15.02 24.64 -14 26 C-7.91314547 18.02225871 -3.18264738 9.54794213 0 0 Z " fill="#4FB3A2" transform="translate(160,113)"/>
<path d="M0 0 C0.99 0 1.98 0 3 0 C3 0.66 3 1.32 3 2 C3.66 2 4.32 2 5 2 C5.33 2.66 5.66 3.32 6 4 C10.61291833 4.31451716 12.45116154 3.8619665 16 1 C18.75 0.3125 18.75 0.3125 21 0 C19.97467587 2.97343996 19.00202083 3.99860466 16.375 5.8125 C12.24016693 7.26734867 9.13623399 7.57975261 5 6 C2.88086255 4.15149938 1.60321763 2.35472589 0 0 Z " fill="#4EB6A4" transform="translate(112,114)"/>
<path d="M0 0 C6.80199882 10.20299823 5.34048117 25.2849258 5 37 C4.67 37 4.34 37 4 37 C3.93941406 35.81664062 3.87882813 34.63328125 3.81640625 33.4140625 C3.38746861 25.2513016 2.9174035 17.12557387 2 9 C1.01 9 0.02 9 -1 9 C-0.67 6.03 -0.34 3.06 0 0 Z " fill="#51B3A2" transform="translate(173,68)"/>
<path d="M0 0 C0.33 0.99 0.66 1.98 1 3 C1.99 3.33 2.98 3.66 4 4 C4.375 6.1875 4.375 6.1875 4 9 C2.16038352 10.99022836 0.20813852 12.38989899 -2 14 C-2.07427838 10.65747276 -2.06546953 8.1964086 -1 5 C-1 3.68 -1 2.36 -1 1 C-0.67 0.67 -0.34 0.34 0 0 Z " fill="#4DB9A5" transform="translate(38,77)"/>
<path d="M0 0 C0.33 0 0.66 0 1 0 C0.96670907 7.64026822 0.96670907 7.64026822 -1.19140625 10.67578125 C-4.53398127 13.63435287 -7.61003109 14.68643079 -12 15 C-9.61426621 13.10786631 -7.92824652 11.97608217 -5 11 C-5.33 9.68 -5.66 8.36 -6 7 C-5.01 7 -4.02 7 -3 7 C-2.87625 6.21625 -2.7525 5.4325 -2.625 4.625 C-2 2 -2 2 0 0 Z " fill="#4EB6A3" transform="translate(116,50)"/>
<path d="M0 0 C0.66 0.33 1.32 0.66 2 1 C0.68 2.65 -0.64 4.3 -2 6 C-1.34 6.33 -0.68 6.66 0 7 C-2.00462519 8.07390635 -3.77013808 8.94971771 -6 9.4375 C-8.47169467 10.13266413 -10.03142628 11.3829573 -12 13 C-10.44997253 9.11602311 -7.99523379 6.97020381 -4.875 4.25 C-3.96492188 3.45078125 -3.05484375 2.6515625 -2.1171875 1.828125 C-1.06917969 0.92320313 -1.06917969 0.92320313 0 0 Z " fill="#51B3A1" transform="translate(45,29)"/>
<path d="M0 0 C0.99 0.33 1.98 0.66 3 1 C3.12375 1.969375 3.2475 2.93875 3.375 3.9375 C3.58125 4.948125 3.7875 5.95875 4 7 C4.66 7.33 5.32 7.66 6 8 C6 8.66 6 9.32 6 10 C2.4213696 8.34832443 -0.74820188 6.21713508 -4 4 C-2.68 3.34 -1.36 2.68 0 2 C0 1.34 0 0.68 0 0 Z " fill="#4FB6A4" transform="translate(133,33)"/>
<path d="M0 0 C5.81261371 1.73982995 10.83169994 3.8110489 16 7 C11.82412255 8.39195915 9.86525224 6.82323219 6 5 C6 4.34 6 3.68 6 3 C5.195625 2.87625 4.39125 2.7525 3.5625 2.625 C2.716875 2.41875 1.87125 2.2125 1 2 C0.67 1.34 0.34 0.68 0 0 Z " fill="#53B09F" transform="translate(124,18)"/>
<path d="M0 0 C0 2.33333333 0 4.66666667 0 7 C-2.31 8.32 -4.62 9.64 -7 11 C-5.5140084 6.40693504 -3.14985318 3.56430755 0 0 Z " fill="#4EB4A3" transform="translate(31,43)"/>
<path d="M0 0 C2 1 2 1 3.1875 3.5625 C4.19372496 7.8196056 3.73953399 10.71070285 3 15 C2.67 15 2.34 15 2 15 C1.34 10.05 0.68 5.1 0 0 Z " fill="#54B4A6" transform="translate(160,75)"/>
<path d="M0 0 C8.03501094 -0.63019694 8.03501094 -0.63019694 12.0625 2 C12.701875 2.66 13.34125 3.32 14 4 C13.67 4.66 13.34 5.32 13 6 C10.5 4.625 10.5 4.625 8 3 C8 2.34 8 1.68 8 1 C5.36 1 2.72 1 0 1 C0 0.67 0 0.34 0 0 Z " fill="#54B39E" transform="translate(101,42)"/>
<path d="M0 0 C-1.33333333 0.66666667 -2.66666667 1.33333333 -4 2 C-5.5159375 2.804375 -5.5159375 2.804375 -7.0625 3.625 C-10 5 -10 5 -13 5 C-8.22381734 1.10364046 -6.19598355 -0.13469529 0 0 Z " fill="#50AF9C" transform="translate(137,130)"/>
<path d="M0 0 C0.99 0 1.98 0 3 0 C3 0.66 3 1.32 3 2 C4.32 2.66 5.64 3.32 7 4 C5.35 4.66 3.7 5.32 2 6 C1.34 4.02 0.68 2.04 0 0 Z " fill="#4EB8A1" transform="translate(17,122)"/>
<path d="M0 0 C1.32 0.66 2.64 1.32 4 2 C1.69 3.32 -0.62 4.64 -3 6 C-2.67 4.68 -2.34 3.36 -2 2 C-1.34 2 -0.68 2 0 2 C0 1.34 0 0.68 0 0 Z " fill="#49B7A2" transform="translate(140,160)"/>
<path d="M0 0 C0.66 0.33 1.32 0.66 2 1 C1.02433888 2.16959987 0.044375 3.33561177 -0.9375 4.5 C-1.48277344 5.1496875 -2.02804688 5.799375 -2.58984375 6.46875 C-3.05519531 6.9740625 -3.52054688 7.479375 -4 8 C-4.33 8 -4.66 8 -5 8 C-5.3125 5.6875 -5.3125 5.6875 -5 3 C-2.625 1.125 -2.625 1.125 0 0 Z " fill="#4CB29D" transform="translate(45,48)"/>
</svg>
